<?xml version="1.0" encoding="UTF-8"?> <svg xmlns="http://www.w3.org/2000/svg" xmlns:xlink="http://www.w3.org/1999/xlink" width="171px" height="131px" viewBox="0 0 171 131" version="1.1"><style> path { transition: opacity 0.2s; } path.disabled { opacity: 0.3; } </style><title>chart-increase</title><g id="Symbols" stroke="none" stroke-width="1" fill="none" fill-rule="evenodd"><g id="Icon-/-Analisys" transform="translate(-9.000000, -29.000000)" fill="#0E0A48"><g id="chart-increase" transform="translate(9.000000, 29.000000)"><path d="M111,87.7932072 C108.565571,87.4098258 106.271954,86.4441659 104,85 L104,131 L111,131 L111,87.7932072" id="Fill-398"></path><path d="M117,131 L126,131 L126,87.0854692 C123.773254,86.866777 121.490135,87.0599078 119.167554,87.7557466 C118.429064,87.977279 117.710304,88.139168 117,88.2754956 L117,131" id="Fill-399"></path><path d="M76,131 L83,131 L83,66.8975833 C82.0197292,65.8926374 81.0096712,64.8734167 79.967118,63.8427761 C78.5346228,62.4352809 77.2185687,61.1505489 76,60 L76,131" id="Fill-400"></path><path d="M89,131 L98,131 L98,81.2645949 C95.167708,78.9134356 92.2259125,76.1045537 89,73 L89,131" id="Fill-401"></path><path d="M155,112.602857 C152.551645,107.814286 149.502303,103.088571 146,99 L146,131 L155,131 L155,112.602857" id="Fill-402"></path><path d="M160,131 L171,131 C171,131 165.681104,129.513274 160,122 L160,131" id="Fill-403"></path><path d="M43,92 C40.2890497,96.2025615 37.2288721,100.112322 34,103.689092 L34,131 L43,131 L43,92" id="Fill-404"></path><path d="M15,121 C6.51847575,127.506239 0,131 0,131 L15,131 L15,121" id="Fill-405"></path><path d="M140,92.6615745 C137.78577,90.6880402 135.441609,89.0919263 133,88 L133,131 L140,131 L140,92.6615745" id="Fill-406"></path><path d="M21,131 L28,131 L28,110 C25.6576402,112.426272 23.2990329,114.652026 21,116.680125 L21,131" id="Fill-407"></path><path d="M49,131 L56,131 L56,63 C54.0611219,67.1375131 51.9001934,72.708563 49.2382979,79.9420576 L49,80.5572481 L49,131" id="Fill-408"></path><path d="M62,131 L70,131 L70,54.7066576 C66.8470082,52.725835 64.381942,52.3918591 62,54.1135625 L62,131" id="Fill-409"></path><polyline id="Fill-410" points="167 0 131.05932 19.788796 142.157642 28.3342809 127.154829 50.2153846 109.591741 20.5137124 85 56.1454849 92.5612128 62.0670569 108.993679 38.2556856 126.582398 68 149.764422 34.1904682 160.637759 42.5682274 167 0"></polyline></g></g></g></svg> 